<svg width="24" height="25" fill="none" xmlns="http://www.w3.org/2000/svg"><path fill-rule="evenodd" clip-rule="evenodd" d="M19 18.5v-6a1 1 0 112 0v6c0 1.654-1.346 3-3 3H6c-1.654 0-3-1.346-3-3v-12c0-1.654 1.346-3 3-3h6a1 1 0 110 2H6c-.552 0-1 .449-1 1v12c0 .551.448 1 1 1h12c.552 0 1-.449 1-1zM17.578 5.508L15.995 5.5a1 1 0 01.005-2h.005l3.997.02a1 1 0 01.995.999L21 8.499a1 1 0 11-2 .002V6.915l-6.293 6.292a.997.997 0 01-1.414 0 .999.999 0 010-1.414l6.285-6.285z" fill="#231F20"/><mask id="a" maskUnits="userSpaceOnUse" x="3" y="3" width="18" height="19"><path fill-rule="evenodd" clip-rule="evenodd" d="M19 18.5v-6a1 1 0 112 0v6c0 1.654-1.346 3-3 3H6c-1.654 0-3-1.346-3-3v-12c0-1.654 1.346-3 3-3h6a1 1 0 110 2H6c-.552 0-1 .449-1 1v12c0 .551.448 1 1 1h12c.552 0 1-.449 1-1zM17.578 5.508L15.995 5.5a1 1 0 01.005-2h.005l3.997.02a1 1 0 01.995.999L21 8.499a1 1 0 11-2 .002V6.915l-6.293 6.292a.997.997 0 01-1.414 0 .999.999 0 010-1.414l6.285-6.285z" fill="#fff"/></mask><g mask="url(#a)"><path fill="#000" d="M0 .5h24v24H0z"/></g></svg>